<?xml version="1.0" encoding="UTF-8"?>
<svg xmlns="http://www.w3.org/2000/svg"
  viewBox="0 0 300 300"
  width="300"
  height="300"
  fill="#F5F5F5"
>
  <path
    fillRule="evenodd"
    clipRule="evenodd"
    d="M50 34.0338C50 57.1361 51.208 64.2898 56.5281 72.6931C57.9668 74.9651 67.4346 85.074 77.5671 95.157C102.559 120.027 105.847 126.221 109.493 155.311C110.591 164.075 112.534 178.149 113.812 186.588C115.09 195.026 117.048 208.57 118.161 216.685C119.997 230.049 120.65 232.187 125.091 239.405C129.746 246.965 131.363 248.501 132.544 246.486C132.829 246 132.114 212.671 130.954 172.425C128.486 86.8231 130.257 95.6739 111.568 75.5116C73.1766 34.0964 53.0905 13.0453 51.6434 12.7089C50.3151 12.3997 50 16.4905 50 34.0338ZM233.246 26.8838C177.581 86.6839 175.204 89.3868 172.849 95.5028C170.724 101.024 170.305 108.488 168.479 173.385C167.37 212.863 166.796 245.685 167.208 246.324C168.354 248.111 170.825 245.603 175.28 238.129C179.647 230.8 179.207 233.142 187.847 170.976C192.506 137.452 194.684 128.321 200.17 119.312C201.977 116.345 211.739 105.57 221.86 95.3706C241.555 75.5223 245.46 70.361 248.156 60.612C250.548 51.9655 250.641 12.5 248.269 12.5C247.37 12.5 240.609 18.9725 233.246 26.8838ZM143.334 89.3443L137.941 94.1633L138.666 120.901C142.294 254.47 143.343 278.409 145.779 283.004C147.09 285.476 148.853 287.5 149.696 287.5C150.54 287.5 152.43 285.242 153.898 282.484C156.439 277.705 156.626 275.149 157.86 228.487C158.573 201.547 159.78 160.48 160.546 137.225L161.936 94.9445L156.609 89.7195C153.677 86.8467 150.706 84.5027 150.004 84.5099C149.301 84.5181 146.299 86.6934 143.334 89.3443Z"
  />
</svg>